{
  "accessors": [
    {
      "bufferView": 2,
      "componentType": 5126,
      "count": 7519,
      "max": [
        0.48689201474189758,
        0.37161499261856079,
        1.9201619625091553
      ],
      "min": [
        -0.48689201474189758,
        -0.12840999662876129,
        0.0012880000285804272
      ],
      "type": "VEC3"
    },
    {
      "bufferView": 2,
      "byteOffset": 90228,
      "componentType": 5126,
      "count": 7519,
      "max": [
        0.99987655878067017,
        0.99991428852081299,
        1
      ],
      "min": [
        -0.99987655878067017,
        -0.99999785423278809,
        -0.9980696439743042
      ],
      "type": "VEC3"
    },
    {
      "bufferView": 1,
      "componentType": 5126,
      "count": 7519,
      "max": [
        1.9638669490814209,
        0.99793201684951782
      ],
      "min": [
        0.0031870000530034304,
        -0.15331999957561493
      ],
      "type": "VEC2"
    },
    {
      "bufferView": 0,
      "componentType": 5125,
      "count": 32886,
      "max": [
        7518
      ],
      "min": [
        0
      ],
      "type": "SCALAR"
    },
    {
      "bufferView": 2,
      "byteOffset": 180456,
      "componentType": 5126,
      "count": 2719,
      "max": [
        0.13569800555706024,
        0.37428799271583557,
        1.6093660593032837
      ],
      "min": [
        -0.14548200368881226,
        -0.10690800100564957,
        0.67235499620437622
      ],
      "type": "VEC3"
    },
    {
      "bufferView": 2,
      "byteOffset": 213084,
      "componentType": 5126,
      "count": 2719,
      "max": [
        0.99997115135192871,
        0.99941849708557129,
        0.99888163805007935
      ],
      "min": [
        -0.99954789876937866,
        -0.99953144788742065,
        -0.99960297346115112
      ],
      "type": "VEC3"
    },
    {
      "bufferView": 1,
      "byteOffset": 60152,
      "componentType": 5126,
      "count": 2719,
      "max": [
        0.71191400289535522,
        0.98417699337005615
      ],
      "min": [
        0.25415000319480896,
        0.0087890001013875008
      ],
      "type": "VEC2"
    },
    {
      "bufferView": 0,
      "byteOffset": 131544,
      "componentType": 5125,
      "count": 8037,
      "max": [
        2718
      ],
      "min": [
        0
      ],
      "type": "SCALAR"
    }
  ],
  "asset": {
    "extras": {
      "author": "AbhishekBarali (https://sketchfab.com/AbhishekBarali)",
      "license": "CC-BY-4.0 (http://creativecommons.org/licenses/by/4.0/)",
      "source": "https://sketchfab.com/3d-models/emilia-rezero-3a97de45568e427a93aeadcaadbcac5e",
      "title": "Emilia ReZero"
    },
    "generator": "Sketchfab-9.11.0",
    "version": "2.0"
  },
  "bufferViews": [
    {
      "buffer": 0,
      "byteLength": 163692,
      "byteOffset": 0,
      "name": "floatBufferViews",
      "target": 34963
    },
    {
      "buffer": 0,
      "byteLength": 81904,
      "byteOffset": 163692,
      "byteStride": 8,
      "name": "floatBufferViews",
      "target": 34962
    },
    {
      "buffer": 0,
      "byteLength": 245712,
      "byteOffset": 245596,
      "byteStride": 12,
      "name": "floatBufferViews",
      "target": 34962
    }
  ],
  "buffers": [
    {
      "byteLength": 491308,
      "uri": "scene.bin"
    }
  ],
  "images": [
    {
      "uri": "textures/Rezero_Emilia_baseColor.png"
    }
  ],
  "materials": [
    {
      "doubleSided": true,
      "emissiveFactor": [
        0,
        0,
        0
      ],
      "name": "Rezero_Emilia",
      "pbrMetallicRoughness": {
        "baseColorFactor": [
          1,
          1,
          1,
          1
        ],
        "baseColorTexture": {
          "index": 0,
          "texCoord": 0
        },
        "metallicFactor": 0,
        "roughnessFactor": 0.80635083269999996
      }
    },
    {
      "doubleSided": true,
      "emissiveFactor": [
        0,
        0,
        0
      ],
      "name": "Rezero_Emilia_Hair",
      "pbrMetallicRoughness": {
        "baseColorFactor": [
          0.034089000000000001,
          0.034089000000000001,
          0.034089000000000001,
          1
        ],
        "metallicFactor": 0,
        "roughnessFactor": 0.82709640880000002
      }
    }
  ],
  "meshes": [
    {
      "primitives": [
        {
          "attributes": {
            "NORMAL": 1,
            "POSITION": 0,
            "TEXCOORD_0": 2
          },
          "indices": 3,
          "material": 0,
          "mode": 4
        }
      ]
    },
    {
      "primitives": [
        {
          "attributes": {
            "NORMAL": 5,
            "POSITION": 4,
            "TEXCOORD_0": 6
          },
          "indices": 7,
          "material": 1,
          "mode": 4
        }
      ]
    }
  ],
  "nodes": [
    {
      "children": [
        1
      ],
      "name": "RootNode (gltf orientation matrix)",
      "rotation": [
        -0.70710678118654746,
        -0,
        -0,
        0.70710678118654757
      ]
    },
    {
      "children": [
        2
      ],
      "name": "RootNode (model correction matrix)"
    },
    {
      "children": [
        3,
        4
      ],
      "name": "Emilia_v1.0_2.79.obj.cleaner.materialmerger.gles"
    },
    {
      "mesh": 0,
      "name": ""
    },
    {
      "mesh": 1,
      "name": ""
    }
  ],
  "samplers": [
    {
      "magFilter": 9729,
      "minFilter": 9987,
      "wrapS": 10497,
      "wrapT": 10497
    }
  ],
  "scene": 0,
  "scenes": [
    {
      "name": "OSG_Scene",
      "nodes": [
        0
      ]
    }
  ],
  "textures": [
    {
      "sampler": 0,
      "source": 0
    }
  ]
}

